<?xml version="1.0" standalone="no"?><!DOCTYPE svg PUBLIC "-//W3C//DTD SVG 1.1//EN" "http://www.w3.org/Graphics/SVG/1.1/DTD/svg11.dtd"><svg t="1580974046719" class="icon" viewBox="0 0 1024 1024" version="1.1" xmlns="http://www.w3.org/2000/svg" p-id="1652" xmlns:xlink="http://www.w3.org/1999/xlink" width="200" height="200"><defs><style type="text/css"></style></defs><path d="M512.1 831.9c-1.3 0-2.6-0.3-3.7-1L108.1 598.6c-2.3-1.3-3.7-3.8-3.7-6.4v-157c0-2.6 1.4-5 3.6-6.4L508.2 193c1.2-0.7 2.5-1 3.8-1s2.6 0.3 3.8 1l400.1 235.8c2.3 1.3 3.6 3.7 3.6 6.4v157c0 2.6-1.4 5.1-3.7 6.4l-400 232.3c-1.2 0.7-2.5 1-3.7 1z" fill="#B5D6FB" p-id="1653"></path><path d="M512.1 199.5l400.1 235.8v157l-65.3 37.9-334.8 194.3-335-194.4-65.3-37.9v-157l400.3-235.7m0-14.8c-2.6 0-5.2 0.7-7.5 2L104.3 422.6c-4.5 2.7-7.3 7.5-7.3 12.7v157c0 5.3 2.8 10.1 7.4 12.8l65.3 37.9 335 194.4c2.3 1.3 4.9 2 7.4 2 2.6 0 5.1-0.7 7.4-2L854.3 643l65.3-37.8c4.6-2.6 7.4-7.5 7.4-12.8v-157c0-5.2-2.8-10.1-7.3-12.7L519.6 186.8c-2.3-1.4-4.9-2.1-7.5-2.1z" fill="#0276F7" p-id="1654"></path><path d="M111.8 435.3L512 669.2l400.2-233.9-400.1-235.8z" fill="#FFFFFF" p-id="1655"></path><path d="M512 676.6c-1.3 0-2.6-0.3-3.7-1l-335-194.4c-3.5-2-4.7-6.6-2.7-10.1s6.5-4.8 10.1-2.7L512 660.6l331.1-192.3c3.5-2 8.1-0.8 10.1 2.7s0.8 8-2.7 10.1L515.8 675.6c-1.2 0.6-2.5 1-3.8 1z" fill="#0276F7" p-id="1656"></path><path d="M506.5 471.6l-88.6-51.2c-1.5 1.1-3.1 2.2-4.9 3.3-1.8 1-3.6 1.9-5.5 2.8l88.6 51.2c1.4-1.1 3-2.2 4.8-3.2 1.8-1.1 3.6-2 5.6-2.9m83.9-73.5c-4.9-0.3-9.7-1.1-14.3-2.2l-31.9 69.9c4.9 0.3 9.7 1.1 14.3 2.2l31.9-69.9m-45.8-26.5L424 390.3c2 2.6 3.3 5.4 3.9 8.2l120.6-18.7c-2-2.6-3.3-5.4-3.9-8.2" fill="#0276F7" p-id="1657"></path><path d="M633.4 346.5c-20.5-11.8-53.6-11.9-74.1 0-11.8 6.8-16.7 16.2-14.8 25.1 0.6 2.8 1.9 5.6 3.8 8.3 2.6 3.5 6.3 6.7 11.2 9.6 4.9 2.8 10.5 5 16.5 6.5 4.6 1.1 9.4 1.9 14.3 2.2 15.5 1.1 31.6-1.8 43.4-8.6 20.5-12 20.3-31.3-0.3-43.1M412.7 380.8c-20.6-11.9-53.6-11.9-74.1 0s-20.3 31 0.2 42.9c18.8 10.9 48.1 11.8 68.6 2.8 1.9-0.8 3.8-1.8 5.5-2.8 1.8-1 3.4-2.1 4.9-3.3 8.3-6.4 11.6-14.3 10-21.9-0.6-2.8-1.9-5.6-3.9-8.2-2.5-3.4-6.3-6.7-11.2-9.5M575 474.5c-4.9-2.8-10.5-5-16.5-6.5-4.6-1.1-9.4-1.9-14.3-2.2-13.1-0.9-26.7 1-37.7 5.8-2 0.9-3.8 1.8-5.6 2.8-1.8 1-3.3 2.1-4.8 3.2-15.4 11.9-13.7 28.9 5.1 39.8 20.5 11.8 53.6 11.9 74.1 0 20.4-11.9 20.2-31.1-0.3-42.9" fill="#0276F7" p-id="1658"></path></svg>