<?xml version="1.0" standalone="no"?><!DOCTYPE svg PUBLIC "-//W3C//DTD SVG 1.1//EN" "http://www.w3.org/Graphics/SVG/1.1/DTD/svg11.dtd"><svg t="1580974055288" class="icon" viewBox="0 0 1024 1024" version="1.1" xmlns="http://www.w3.org/2000/svg" p-id="1949" xmlns:xlink="http://www.w3.org/1999/xlink" width="200" height="200"><defs><style type="text/css"></style></defs><path d="M817.3 505c2.7-14 4.3-28.4 4.3-43.2 0-123.8-100.4-224.2-224.2-224.2-81.9 0-153.3 44.1-192.5 109.7-15.1-5.9-31.5-9.2-48.7-9.2-72.6 0-131.6 57.6-134.3 129.5-69 18.6-119.9 81.5-119.9 156.5 0 89.6 72.7 162.3 162.3 162.3h514.3c79.2 0 143.4-64.2 143.4-143.4 0-65.8-44.3-121-104.7-138z" fill="#D4E4FC" p-id="1950"></path><path d="M778.6 793.2H264.3C171 793.2 95.2 717.3 95.2 624c0-74.5 49.2-140.3 120.2-161.8 5.3-73.9 66.2-131.1 140.9-131.1 15.6 0 30.9 2.6 45.8 7.7 42.7-67.8 115.3-108.1 195.4-108.1 127.4 0 231 103.6 231 231 0 12.7-1.1 25.6-3.3 38.4 61.3 20 103.6 77.8 103.6 142.7 0 83-67.4 150.4-150.2 150.4zM356.3 344.9c-68.9 0-124.9 54-127.4 122.9l-0.2 5.1-4.9 1.3c-67.6 18.3-114.9 79.9-114.9 149.9 0 85.7 69.7 155.4 155.4 155.4h514.3c75.3 0 136.5-61.2 136.5-136.5 0-60.9-41-114.9-99.6-131.3l-6.1-1.7 1.2-6.2c2.7-14 4.1-28.1 4.1-41.9 0-119.8-97.5-217.3-217.3-217.3-77.1 0-146.9 39.7-186.6 106.3l-3 5-5.4-2.1c-14.9-5.9-30.4-8.9-46.1-8.9z" fill="#0276F7" p-id="1951"></path></svg>